<svg width="100" height="100" viewBox="0 0 100 100" fill="none" xmlns="http://www.w3.org/2000/svg">
<path d="M49.5529 99.6273C36.8544 99.6273 24.1663 94.7977 14.4966 85.1281C-4.83221 65.7992 -4.83221 34.3548 14.4966 15.0259C23.8644 5.65815 36.3131 0.505859 49.5529 0.505859C62.7927 0.505859 75.2414 5.65815 84.6092 15.0259C103.938 34.3548 103.938 65.7992 84.6092 85.1281C74.95 94.7873 62.2514 99.6273 49.5529 99.6273ZM17.0988 82.5259C34.9912 100.418 64.1042 100.418 81.9966 82.5259C99.8891 64.6335 99.8891 35.5205 81.9966 17.6281C73.3262 8.95768 61.8039 4.19049 49.5425 4.19049C37.2811 4.19049 25.7588 8.96809 17.0884 17.6281C-0.804078 35.5205 -0.804078 64.6335 17.0884 82.5259H17.0988Z" fill="#7DDACF"/>
<path d="M51.3875 39.6426L42.207 52.5076H47.7132V61.6881L56.8936 48.8334H51.3875V39.6426Z" fill="#7DDACF"/>
<path d="M49.5432 32.4917C39.4885 32.4917 31.3281 40.6521 31.3281 50.7068C31.3281 60.7616 39.4885 68.9011 49.5432 68.9011C59.598 68.9011 67.7584 60.7407 67.7584 50.7068C67.7584 40.6729 59.598 32.4917 49.5432 32.4917ZM49.5432 66.6528C40.7167 66.6528 33.5556 59.4917 33.5556 50.6652C33.5556 41.8387 40.7167 34.6776 49.5432 34.6776C58.3698 34.6776 65.531 41.8387 65.531 50.6652C65.531 59.4917 58.3698 66.6528 49.5432 66.6528Z" fill="#7DDACF"/>
<path d="M77.7002 21.927C70.1852 14.4015 60.1824 10.2693 49.5448 10.2693C38.9072 10.2693 28.9149 14.4119 21.3895 21.927C5.87018 37.4462 5.87018 62.708 21.3895 78.2377C29.1543 86.0025 39.3443 89.8849 49.5448 89.8849C59.7453 89.8849 69.9354 86.0025 77.7002 78.2377C93.2195 62.7184 93.2195 37.4567 77.7002 21.927ZM49.5448 75.417C35.9303 75.417 24.8451 64.3317 24.8451 50.7172C24.8451 44.701 26.9997 39.1845 30.5803 34.8753L27.5618 31.8568C26.6979 30.9929 26.6979 29.5877 27.5618 28.7134C28.4257 27.8391 29.8309 27.8495 30.7052 28.7134L33.7237 31.7319C37.4708 28.5989 42.1859 26.538 47.3278 26.1008V24.0607H45.2877C43.487 24.0607 41.9985 22.5723 41.9985 20.7716V19.0542C41.9985 17.2327 43.487 15.7651 45.2877 15.7651H53.8228C55.6235 15.7651 57.1119 17.2327 57.1119 19.0542V20.7716C57.1119 22.5723 55.6235 24.0607 53.8228 24.0607H51.7827V26.1008C56.935 26.5484 61.6397 28.6093 65.3868 31.7319L68.4052 28.7134C69.2692 27.8495 70.6743 27.8495 71.5487 28.7134C72.4126 29.5773 72.4126 30.9825 71.5487 31.8568L68.5301 34.8753C72.1107 39.1845 74.2653 44.6906 74.2653 50.7172C74.2653 64.3317 63.1801 75.417 49.5656 75.417H49.5448Z" fill="#7DDACF"/>
</svg>
